Land_normalized_Precision Landing12_filtered_grf
version=1
nRows=27
nColumns=37
inDegrees=yes
endheader
time		1_ground_force_vx		1_ground_force_vy		1_ground_force_vz		1_ground_force_px		1_ground_force_py		1_ground_force_pz		1_ground_torque_x		1_ground_torque_y		1_ground_torque_z		2_ground_force_vx		2_ground_force_vy		2_ground_force_vz		2_ground_force_px		2_ground_force_py		2_ground_force_pz		2_ground_torque_x		2_ground_torque_y		2_ground_torque_z		3_ground_force_vx		3_ground_force_vy		3_ground_force_vz		3_ground_force_px		3_ground_force_py		3_ground_force_pz		3_ground_torque_x		3_ground_torque_y		3_ground_torque_z		4_ground_force_vx		4_ground_force_vy		4_ground_force_vz		4_ground_force_px		4_ground_force_py		4_ground_force_pz		4_ground_torque_x		4_ground_torque_y		4_ground_torque_z		
0.997000		-2.362795		-33.491701		-28.742624		0.110033		0.000000		0.306357		-0.007323		-0.103797		-0.089079		0.010155		-19.239854		0.702773		-0.145962		0.000000		0.396311		-0.000051		0.095682		-0.003495		3.249755		0.049691		-0.757580		0.353035		1.255186		1.891800		-0.009755		0.003858		0.062681		-16.204746		0.703215		-2.934570		-0.289331		1.264889		1.901804		-0.002232		0.000097		-0.000404		
1.000232		1.223598		-38.705395		-45.200595		0.119762		0.000000		0.268000		-0.005318		0.161164		0.188917		-1.417975		-36.058399		-14.709198		-0.179300		0.000000		0.327133		-0.072507		-1.839636		-0.752352		3.168434		0.038493		-0.751779		0.353037		1.255192		1.891825		-0.008744		0.002393		0.058126		-16.145434		0.731423		-2.910653		-0.289326		1.264883		1.901840		-0.001944		0.000088		-0.000350		
1.003465		6.560516		-21.137675		-44.641746		0.153963		0.000000		0.162317		-0.099439		0.319204		0.675421		-2.805073		-41.976452		-31.537324		-0.219402		0.000000		0.274780		-0.187019		-2.798429		-2.102678		3.048351		0.000553		-0.751999		0.353050		1.255198		1.891838		-0.008808		0.000104		0.052685		-16.007185		0.759625		-2.920724		-0.289327		1.264877		1.901864		-0.003167		0.000150		-0.000577		
1.006697		11.670455		30.112264		-12.852222		0.105377		0.000000		0.450055		0.088614		0.249369		-0.078464		-2.992273		-23.327919		-39.916251		-0.288484		0.000000		0.121441		-0.147476		-1.161166		-1.962254		2.903980		-0.057704		-0.760321		0.353075		1.255202		1.891842		-0.009710		-0.002401		0.047853		-15.827946		0.789731		-2.958484		-0.289336		1.264874		1.901877		-0.005239		0.000261		-0.000979		
1.009929		13.228087		118.354594		57.981450		0.105908		0.000000		0.337181		0.110536		0.985699		0.481808		-0.405547		31.133721		-27.166136		-0.188063		0.000000		0.530138		0.037719		-2.862086		2.504762		2.762441		-0.119600		-0.778008		0.353111		1.255206		1.891844		-0.010898		-0.004551		0.045032		-15.646026		0.816349		-3.005232		-0.289350		1.264873		1.901877		-0.007250		0.000379		-0.001393		
1.013162		7.381826		237.104008		163.375657		0.110715		0.000000		0.309491		0.011294		0.350233		0.240596		6.647562		125.534481		18.137329		-0.145403		0.000000		0.365818		0.158781		2.977448		0.444005		2.650191		-0.173176		-0.805466		0.353152		1.255212		1.891842		-0.011653		-0.005758		0.044962		-15.487126		0.828697		-3.036162		-0.289364		1.264872		1.901863		-0.008382		0.000449		-0.001643		
1.016394		-8.533397		371.359507		282.493080		0.114859		0.000000		0.295946		0.023297		-1.002912		-0.763095		19.409740		252.728477		99.612427		-0.170982		0.000000		0.328903		1.067133		13.890291		5.477783		2.582539		-0.219253		-0.835915		0.353189		1.255222		1.891837		-0.011342		-0.005445		0.047482		-15.361697		0.819455		-3.027951		-0.289372		1.264871		1.901837		-0.008199		0.000437		-0.001616		
1.019626		-34.292701		506.604096		382.693217		0.118030		0.000000		0.290040		0.194464		-2.869613		-2.167487		38.292119		397.250811		208.532828		-0.186720		0.000000		0.310127		2.535517		26.301369		13.807918		2.567117		-0.265920		-0.851262		0.353219		1.255234		1.891826		-0.009652		-0.003308		0.051928		-15.271462		0.793607		-2.968521		-0.289367		1.264870		1.901800		-0.006808		0.000354		-0.001324		
1.022859		-65.620532		639.653138		431.578492		0.119571		0.000000		0.291953		0.464964		-4.532074		-3.057705		62.519761		544.504237		322.655953		-0.194556		0.000000		0.301243		4.470613		38.934568		23.071749		2.612346		-0.316321		-0.829469		0.353236		1.255246		1.891803		-0.006734		0.000434		0.057557		-15.216555		0.769015		-2.865989		-0.289347		1.264867		1.901755		-0.004779		0.000242		-0.000900		
1.026091		-94.881612		782.733819		411.958905		0.118838		0.000000		0.302377		0.523708		-4.321031		-2.276094		89.833576		693.177178		411.740318		-0.194038		0.000000		0.302876		6.558484		50.607023		30.060164		2.723558		-0.361064		-0.759853		0.353241		1.255257		1.891765		-0.003194		0.005010		0.063665		-15.199542		0.767439		-2.748149		-0.289316		1.264865		1.901703		-0.002848		0.000144		-0.000515		
1.029323		-113.389718		955.076512		330.259292		0.116825		0.000000		0.319632		-0.025705		0.220547		0.069285		115.975331		859.506856		447.265503		-0.184416		0.000000		0.316074		8.005246		59.327595		30.876370		2.887585		-0.382041		-0.652596		0.353240		1.255265		1.891714		0.000120		0.009342		0.069388		-15.226855		0.801727		-2.650127		-0.289278		1.264862		1.901647		-0.001628		0.000086		-0.000284		
1.032556		-114.656796		1167.845612		214.879701		0.115907		0.000000		0.339679		-0.969897		9.885375		1.815741		135.149589		1065.683117		413.433147		-0.169074		0.000000		0.337786		7.650137		60.317558		23.407029		3.065076		-0.367012		-0.536233		0.353238		1.255267		1.891652		0.002437		0.012530		0.073629		-15.307980		0.865510		-2.597180		-0.289236		1.264860		1.901590		-0.001437		0.000081		-0.000244		
1.035788		-96.940317		1411.763020		103.839658		0.116470		0.000000		0.358110		-1.529080		22.291250		1.635367		142.442372		1319.372652		313.572569		-0.156080		0.000000		0.361736		5.240412		48.506329		11.552128		3.200761		-0.323937		-0.445116		0.353242		1.255265		1.891583		0.003218		0.014266		0.075312		-15.452723		0.935216		-2.595626		-0.289195		1.264857		1.901535		-0.002266		0.000137		-0.000380		
1.039020		-64.958168		1652.274112		29.732857		0.117171		0.000000		0.371926		-1.358564		34.560684		0.621743		137.100206		1596.725575		173.221102		-0.150474		0.000000		0.382492		2.280077		26.548196		2.882954		3.244438		-0.283199		-0.403265		0.353255		1.255262		1.891514		0.002233		0.014963		0.073907		-15.657361		0.985716		-2.633228		-0.289152		1.264854		1.901482		-0.003839		0.000242		-0.000646		
1.042253		-28.683146		1838.412892		10.257146		0.117250		0.000000		0.379999		-0.698069		44.781640		0.249988		123.053689		1843.352702		33.440285		-0.150289		0.000000		0.396985		0.263512		3.917770		0.079485		3.170879		-0.281027		-0.413284		0.353277		1.255259		1.891446		-0.000400		0.015455		0.069605		-15.890380		1.009087		-2.690239		-0.289105		1.264851		1.901428		-0.005746		0.000365		-0.000973		
1.045485		-0.288614		1924.740353		44.735960		0.116591		0.000000		0.382417		-0.007675		51.384503		1.194383		107.271326		1996.032564		-61.337419		-0.151446		0.000000		0.404072		-0.585984		-10.904837		0.335311		2.997426		-0.333374		-0.453230		0.353308		1.255255		1.891384		-0.004073		0.016494		0.063322		-16.095407		1.020124		-2.746904		-0.289054		1.264850		1.901372		-0.007435		0.000472		-0.001269		
1.048717		10.809998		1891.075256		120.353451		0.115112		0.000000		0.379354		0.302502		52.917979		3.368211		96.331186		2012.320655		-78.705215		-0.151565		0.000000		0.403398		-0.647174		-13.518260		0.528978		2.775669		-0.421470		-0.488725		0.353344		1.255250		1.891329		-0.007785		0.018374		0.056309		-16.218104		1.041692		-2.787488		-0.289004		1.264851		1.901312		-0.008200		0.000527		-0.001409		
1.051949		2.926105		1756.379893		215.969523		0.112645		0.000000		0.370937		0.081319		48.790902		5.999194		93.434656		1896.484474		-13.921780		-0.150180		0.000000		0.395027		-0.171515		-3.484281		0.027179		2.571053		-0.498764		-0.490793		0.353381		1.255240		1.891277		-0.010405		0.020848		0.049893		-16.234775		1.083829		-2.799448		-0.288956		1.264852		1.901249		-0.007424		0.000495		-0.001280		
1.055182		-17.284854		1564.669911		308.486538		0.109104		0.000000		0.357172		-0.437403		39.641858		7.813109		97.098389		1690.390425		109.858671		-0.148494		0.000000		0.379262		0.943467		16.397898		1.078590		2.432416		-0.520465		-0.447905		0.353422		1.255226		1.891228		-0.011165		0.023362		0.045257		-16.157142		1.132754		-2.770078		-0.288916		1.264854		1.901185		-0.004927		0.000345		-0.000845		
1.058414		-38.058687		1366.699009		378.127377		0.104786		0.000000		0.338968		-0.778729		27.980427		7.739317		101.645877		1452.957162		249.862477		-0.149077		0.000000		0.357740		2.766866		39.532184		6.809786		2.373117		-0.473544		-0.368302		0.353462		1.255207		1.891179		-0.010073		0.025246		0.043353		-16.023689		1.156082		-2.689318		-0.288890		1.264856		1.901124		-0.001264		0.000091		-0.000213		
1.061646		-49.493949		1200.866849		413.897874		0.100141		0.000000		0.319136		-0.724414		17.583123		6.058572		100.086212		1234.669170		362.934349		-0.153565		0.000000		0.334095		4.658066		57.452315		16.901058		2.373357		-0.383441		-0.274701		0.353503		1.255185		1.891131		-0.007876		0.025844		0.044800		-15.875798		1.120860		-2.556936		-0.288879		1.264856		1.901068		0.002479		-0.000175		0.000399		
1.064879		-48.505230		1085.241485		416.420154		0.095453		0.000000		0.302563		-0.514225		11.504608		4.414183		88.065847		1065.539461		421.877022		-0.159184		0.000000		0.313876		5.400869		65.350114		25.878265		2.395751		-0.295848		-0.196489		0.353541		1.255168		1.891084		-0.005681		0.024685		0.049434		-15.739348		1.014157		-2.389961		-0.288880		1.264857		1.901018		0.005202		-0.000335		0.000790		
1.068111		-38.420817		1019.284442		395.553055		0.091465		0.000000		0.294115		-0.384604		10.204706		3.960080		66.777103		953.402858		422.922992		-0.160802		0.000000		0.302535		4.531830		64.704816		28.702709		2.410663		-0.248319		-0.159212		0.353573		1.255160		1.891041		-0.004322		0.021684		0.055950		-15.619704		0.853462		-2.219657		-0.288892		1.264860		1.900974		0.006334		-0.000346		0.000900		
1.071343		-24.875859		990.304566		365.215062		0.089527		0.000000		0.295255		-0.296385		11.805592		4.353489		42.619410		888.987398		383.143120		-0.157177		0.000000		0.301756		2.840914		59.248941		25.536228		2.414766		-0.254269		-0.174933		0.353597		1.255160		1.891004		-0.003969		0.017417		0.062074		-15.512181		0.682196		-2.077175		-0.288909		1.264868		1.900937		0.006064		-0.000267		0.000812		
1.074576		-12.138555		980.985159		337.731135		0.090044		0.000000		0.302916		-0.172223		13.923619		4.793467		23.246108		854.549494		330.139250		-0.151896		0.000000		0.307915		1.420013		52.191377		20.163923		2.429791		-0.305216		-0.234801		0.353612		1.255166		1.890973		-0.004209		0.013212		0.065635		-15.416079		0.551151		-1.979110		-0.288927		1.264878		1.900904		0.005149		-0.000184		0.000661		
1.077808		-2.335007		975.787145		320.035015		0.091862		0.000000		0.311979		-0.036454		15.251780		5.002168		12.919115		832.650375		289.225923		-0.148769		0.000000		0.315067		0.721517		46.494799		16.150721		2.483273		-0.382523		-0.308408		0.353616		1.255177		1.890950		-0.004495		0.010733		0.065778		-15.339601		0.495232		-1.924434		-0.288945		1.264889		1.900880		0.004373		-0.000141		0.000549		
1.081040		3.746752		964.678466		312.567738		0.093447		0.000000		0.318177		0.060035		15.457440		5.008401		10.448934		811.166370		273.534599		-0.148836		0.000000		0.318828		0.567729		44.073601		14.862137		2.588631		-0.464060		-0.356324		0.353610		1.255183		1.890933		-0.004542		0.011097		0.063339		-15.292747		0.515821		-1.902659		-0.288958		1.264895		1.900864		0.004074		-0.000137		0.000507		
